<svg xmlns="http://www.w3.org/2000/svg" viewBox="0 0 949 370.07"><defs><linearGradient id="linear-gradient" x1="634.03" y1="205.79" x2="749.85" y2="638.05" gradientTransform="matrix(1 -.15 0 1 -217.44 -139.09)" gradientUnits="userSpaceOnUse"><stop offset="0" stop-color="#971c28"/><stop offset=".54" stop-color="#75235d"/><stop offset="1" stop-color="#5a2887"/></linearGradient><style>.cls-3{fill:#fff}</style></defs><g id="Layer_2" data-name="Layer 2"><path stroke-width="30" stroke="url(#linear-gradient)" fill="none" stroke-linejoin="round" d="M15 154.54l394-59.82v66l65-75.88 66 55.98v-66L934 15v186l-328 49.8-11.31 1.72.31 10.95-121-101.63-120 138.23v55L157 187.98v131L15 340.54v-186z"/><path d="M15 154.54l394-59.82v66l65-75.88 66 55.98v-66L934 15v186l-328 49.8-11.31 1.72.31 10.95-121-101.63-120 138.23v55L157 187.98v131L15 340.54v-186z"/><path stroke="#000" stroke-linecap="round" stroke-width="15" fill="none" stroke-linejoin="round" d="M15 154.54l394-59.82v66l65-75.88 66 55.98v-66L934 15v186l-328 49.8-11.31 1.72.31 10.95-121-101.63-120 138.23v55L157 187.98v131L15 340.54v-186z"/></g><g id="Layer_1" data-name="Layer 1"><path class="cls-3" d="M17 156.32l72.56-11.02v50.64l-21.87 3.33v80.6l21.87-3.32v50.64L17 338.21V156.32z"/><path d="M305 320.35V367l-18.47 2.81-3.4.51v84.66l4.6-.7L305 451.6v46.6l-68.56 10.41V330.76L305 320.35m4-4.65l-76.56 11.63v185.93L309 501.64V447l-21.87 3.32v-76.61l21.87-3.32V315.7z" transform="translate(-217.44 -172.73)"/><path class="cls-3" d="M172.77 198.29l117.67-17.86v-14.99l-135.25 20.54v131.25l-50.69 7.7v-181.9l236.63-35.92v116.26l-46.4 7.05 57.33 48.62v71.32L172.77 198.29z"/><path d="M556.56 282.16v112.22l-40.35 6.13-8.69 1.31 6.71 5.69 53.27 45.19v66.07L394.86 372.34l111.62-16.95 3.4-.52v-19l-4.6.7L374 356.47l-3.4.52v131.25l-46.69 7.08V317.48l232.62-35.32m4-4.66L319.94 314v186l54.69-8.31V360.42l131.25-19.92v10.93L385.56 369.7 571.5 527.41v-76.57l-54.69-46.38 43.75-6.64V277.5z" transform="translate(-217.44 -172.73)"/><path class="cls-3" d="M356.06 104.84l50.69-7.7v68.65l67.84-78.13L542 144.83V76.61l50.69-7.7v190.23L474.16 158.61l-118.1 136.03v-189.8z"/><path d="M808.13 244v183.55L694.4 331.09l-3-2.56-2.6 3L575.5 462V279.28l46.69-7.09v71.68l7-8.08 63-72.61 62.61 53.11 6.59 5.58v-70.82l46.74-7.05m4-4.65l-54.69 8.3v65.63l-65.63-55.66-65.62 75.59v-65.67l-54.69 8.3v196.88l120.31-138.58 120.32 102V239.31z" transform="translate(-217.44 -172.73)"/><path class="cls-3" d="M607.63 66.64l236.62-35.93v50.64l-185.94 28.24v80.6l135.25-20.53v-14.98l-67.02 10.17-50.64-42.95 168.35-25.56V212.6l-236.62 35.93V66.64z"/><path d="M1059.69 205.76v46.6l-182.54 27.72-3.4.51v84.66l4.6-.7 131.25-19.93 3.4-.52v-19l-4.6.7-63.82 9.69L898 295.94l161.71-24.55v112.22l-232.65 35.32V241.09l232.63-35.33m4-4.65l-240.63 36.54v185.93l240.63-36.53V266.74l-175 26.57 54.69 46.38 65.62-10v10.94l-131.25 19.96V284l185.94-28.23v-54.66z" transform="translate(-217.44 -172.73)"/><path class="cls-3" d="M859.19 159.69l21.87-3.32v-80.6l-21.87 3.32V28.45l72.56-11.02v181.89l-72.56 11.02v-50.65z"/><path d="M1147.19 192.48v177.84l-68.56 10.41v-46.59l18.47-2.81 3.4-.51v-84.66l-4.6.7-17.27 2.62v-46.59l68.56-10.41m4-4.65l-76.56 11.62v54.69l21.87-3.32v76.56l-21.87 3.32v54.69l76.56-11.63V187.83z" transform="translate(-217.44 -172.73)"/></g></svg>